<?xml version="1.0" encoding="iso-8859-1"?>
<!-- Generator: Adobe Illustrator 19.0.0, SVG Export Plug-In . SVG Version: 6.00 Build 0)  -->
<svg version="1.1" id="Layer_1" xmlns="http://www.w3.org/2000/svg" xmlns:xlink="http://www.w3.org/1999/xlink" x="0px" y="0px"
	 viewBox="0 0 512 512" style="enable-background:new 0 0 512 512;" xml:space="preserve">
<g>
	<g>
		<path fill="#ffffff" d="M495.304,100.174h-50.087V16.696c0-9.22-7.475-16.696-16.696-16.696H16.696C7.475,0,0,7.475,0,16.696V395.13
			c0,9.22,7.475,16.696,16.696,16.696h50.087v83.478c0,9.22,7.475,16.696,16.696,16.696h411.826c9.22,0,16.696-7.475,16.696-16.696
			V116.87C512,107.649,504.525,100.174,495.304,100.174z M66.783,116.87v261.565H33.391V33.391h378.435v66.783H83.478
			C74.258,100.174,66.783,107.649,66.783,116.87z M478.609,478.609H100.174V133.565h378.435V478.609z"/>
	</g>
</g>
<g>
	<g>
		<path fill="#ffffff" d="M428.522,233.739H150.261c-9.22,0-16.696,7.475-16.696,16.696v178.087c0,9.22,7.475,16.696,16.696,16.696h278.261
			c9.22,0,16.696-7.475,16.696-16.696V250.435C445.217,241.214,437.742,233.739,428.522,233.739z M411.826,411.826h-244.87V267.13
			h244.87V411.826z"/>
	</g>
</g>
<g>
</g>
<g>
</g>
<g>
</g>
<g>
</g>
<g>
</g>
<g>
</g>
<g>
</g>
<g>
</g>
<g>
</g>
<g>
</g>
<g>
</g>
<g>
</g>
<g>
</g>
<g>
</g>
<g>
</g>
</svg>
