<?xml version="1.0" encoding="iso-8859-1"?>
<!-- Generator: Adobe Illustrator 16.0.0, SVG Export Plug-In . SVG Version: 6.00 Build 0)  -->
<!DOCTYPE svg PUBLIC "-//W3C//DTD SVG 1.1//EN" "http://www.w3.org/Graphics/SVG/1.1/DTD/svg11.dtd">
<svg version="1.1" id="Capa_1" xmlns="http://www.w3.org/2000/svg" xmlns:xlink="http://www.w3.org/1999/xlink" x="0px" y="0px"
	 width="97.724px" height="97.724px" viewBox="0 0 97.724 97.724" style="enable-background:new 0 0 97.724 97.724;"
	 xml:space="preserve">
<g>
	<g>
		<path fill="#ffffff" d="M49.462,12.579V1.48c0-0.544-0.301-1.042-0.795-1.304c-0.488-0.26-1.069-0.231-1.521,0.073L16.483,20.888
			c-0.411,0.282-0.652,0.739-0.652,1.229c0,0.491,0.238,0.957,0.652,1.23L47.132,43.98c0.459,0.305,1.033,0.335,1.528,0.087
			c0.479-0.263,0.788-0.768,0.788-1.314V30.822c4.827,0.034,8.804,0.241,12.137,0.64c15.947,1.899,20.212,11.466,20.387,11.873
			c0.222,0.553,0.776,0.9,1.365,0.9c0.085,0,0.191-0.003,0.287-0.027c0.688-0.137,1.191-0.743,1.191-1.448
			C84.815,18.591,56.116,13.444,49.462,12.579z"/>
		<path fill="#ffffff" d="M81.239,74.371L50.583,53.742c-0.445-0.308-1.026-0.343-1.521-0.093c-0.479,0.268-0.78,0.767-0.78,1.314v11.933
			c-4.833-0.037-8.81-0.243-12.136-0.644c-15.954-1.898-20.22-11.464-20.388-11.871c-0.231-0.555-0.782-0.9-1.364-0.9
			c-0.094,0-0.198,0.004-0.294,0.028c-0.69,0.137-1.191,0.742-1.191,1.45c0,24.164,28.696,29.318,35.358,30.188v11.098
			c0,0.537,0.294,1.041,0.788,1.304c0.488,0.257,1.069,0.229,1.521-0.075l30.663-20.636c0.41-0.284,0.653-0.739,0.653-1.231
			C81.893,75.11,81.653,74.642,81.239,74.371z"/>
	</g>
</g>
<g>
</g>
<g>
</g>
<g>
</g>
<g>
</g>
<g>
</g>
<g>
</g>
<g>
</g>
<g>
</g>
<g>
</g>
<g>
</g>
<g>
</g>
<g>
</g>
<g>
</g>
<g>
</g>
<g>
</g>
</svg>
