<?xml version="1.0" encoding="iso-8859-1"?>
<!-- Generator: Adobe Illustrator 19.0.0, SVG Export Plug-In . SVG Version: 6.00 Build 0)  -->
<svg version="1.1" id="Layer_1" xmlns="http://www.w3.org/2000/svg" xmlns:xlink="http://www.w3.org/1999/xlink" x="0px" y="0px"
	 viewBox="0 0 489.8 489.8" style="enable-background:new 0 0 489.8 489.8;" xml:space="preserve">
<g>
	<g>
		<g>
			<path fill="#ffffff" d="M469.1,182.95h-38.2c-3.1-8.3-6.2-16.6-10.3-23.8l26.9-26.9c8.3-8.2,8.3-20.6,0-28.9l-60-60c-8.2-8.3-20.6-8.3-28.9,0
				l-27.9,27.9c-7.2-3.1-15.5-6.2-22.7-9.3v-39.3c0-11.4-9.3-20.7-20.7-20.7h-84.8c-11.4,0-20.7,9.3-20.7,20.7v37.1
				c-8.2,3.1-15.5,6.2-22.7,9.3l-27.9-27.9c-8.2-8.3-20.6-8.3-28.9,0l-60,60c-8.3,8.2-8.3,20.6,0,28.9l26.9,26.9
				c-4.1,8.3-7.2,15.5-10.3,23.8H20.7c-11.4,0-20.7,9.3-20.7,20.7v84.8c0,11.4,9.3,20.7,20.7,20.7h35.1c3.1,8.3,6.2,16.5,10.3,24.8
				l-25.8,25.8c-4.1,4.1-11.6,16.3,0,28.9l60,60c8.2,8.3,20.6,8.3,28.9,0l24.8-24.8c8.2,5.2,16.5,8.3,25.8,11.4v34.1
				c0,11.4,9.3,20.7,20.7,20.7h84.8c11.4,0,20.7-9.3,19.7-18.5v-34.1c8.2-3.1,17.5-7.3,25.8-11.4l24.8,24.8c8.2,8.3,20.6,8.3,28.9,0
				l60-60c8.3-8.2,8.3-20.6,0-28.9l-25.8-25.8c4.1-8.3,7.2-16.5,10.3-24.8h40.1c11.4,0,20.7-9.3,20.7-20.7v-84.8
				C489.8,192.25,480.5,182.95,469.1,182.95z M445.6,266.75h-31c-9.3,0-17.5,6.2-19.6,15.5c-4.2,15.5-9.3,30-17.6,43.4
				c-5.2,8.3-3.1,18.6,3.1,24.8l21.7,21.7l-31,31l-20.7-20.7c-6.2-7.2-16.5-8.3-24.8-3.1c-14.5,8.3-29,14.5-44.5,18.6
				c-9.3,2-15.5,10.3-15.5,19.6v30h-44.5v-0.1h-1v-30c0-9.3-6.2-17.5-15.5-19.6c-15.6-4.1-31.1-10.3-44.5-18.6
				c-8.3-5.2-18.6-3.1-24.8,3.1l-20.7,20.7l-31-31l21.7-21.7c6.2-7.2,8.3-16.5,3.1-24.8c-8.3-13.4-14.5-27.9-17.6-43.4
				c-2-9.3-10.3-15.5-19.6-15.5h-31v-44.5h33.1c9.3,0,17.5-6.2,19.6-15.5c3.1-14.5,9.3-28,17.6-41.4c5.2-8.3,3.1-18.6-3.1-24.8
				l-23.8-23.8l31-31l23.8,23.8c7.2,6.2,16.5,8.3,24.8,3.1c13.5-7.2,26.9-13.4,41.4-16.5c9.3-2,15.5-10.3,15.5-19.6v-34.1h44.5v35.2
				c0,9.3,6.2,17.5,15.5,19.6c14.5,3.1,29,9.3,41.4,16.5c8.3,5.2,18.6,3.1,24.8-3.1l24.8-24.8l31,31l-23.8,23.8
				c-7.2,6.2-8.3,16.5-3.1,24.8c7.3,12.5,13.5,26.9,17.6,41.4c2,9.3,10.3,15.5,19.6,15.5h33.1V266.75z"/>
			<path fill="#ffffff" d="M242.9,132.25c-62,0-112.7,50.7-112.7,112.7s50.7,112.7,112.7,112.7c62.1,0,112.7-50.7,112.7-112.7
				S304.9,132.25,242.9,132.25z M242.9,317.35c-39.3,0-72.4-32.1-72.4-72.4c0-39.3,32.1-72.4,72.4-72.4c40.3,0,72.4,32.1,72.4,72.4
				C315.3,284.25,282.2,317.35,242.9,317.35z"/>
		</g>
	</g>
</g>
<g>
</g>
<g>
</g>
<g>
</g>
<g>
</g>
<g>
</g>
<g>
</g>
<g>
</g>
<g>
</g>
<g>
</g>
<g>
</g>
<g>
</g>
<g>
</g>
<g>
</g>
<g>
</g>
<g>
</g>
</svg>
